<svg xmlns="http://www.w3.org/2000/svg" version="1.1" width="25%" height="25%" viewBox="0 0 120 120" style="shape-rendering:geometricPrecision; text-rendering:geometricPrecision; image-rendering:optimizeQuality; fill-rule:evenodd; clip-rule:evenodd" xmlns:xlink="http://www.w3.org/1999/xlink">
<g><path style="opacity:0" fill="#f8fafb" d="M -0.5,-0.5 C 39.5,-0.5 79.5,-0.5 119.5,-0.5C 119.5,39.5 119.5,79.5 119.5,119.5C 79.5,119.5 39.5,119.5 -0.5,119.5C -0.5,79.5 -0.5,39.5 -0.5,-0.5 Z"/></g>
<g><path style="opacity:1" fill="#142f46" d="M 73.5,64.5 C 72.2058,65.2899 71.0391,66.2899 70,67.5C 69.5002,78.1615 69.3335,88.8281 69.5,99.5C 76.1667,99.5 82.8333,99.5 89.5,99.5C 89.5,100.5 89.5,101.5 89.5,102.5C 87.4727,102.338 85.4727,102.505 83.5,103C 84.3805,103.708 85.0472,104.542 85.5,105.5C 85.5299,106.497 85.0299,107.164 84,107.5C 82.4801,106.303 81.3134,104.803 80.5,103C 76.8333,102.667 73.1667,102.333 69.5,102C 68.5838,101.626 67.7504,101.126 67,100.5C 66.3333,89.1667 66.3333,77.8333 67,66.5C 76.0254,56.7139 78.692,45.3806 75,32.5C 68.5436,25.861 60.7102,23.6943 51.5,26C 41.8483,30.9626 38.6817,38.796 42,49.5C 43.4766,62.4856 50.6432,68.8189 63.5,68.5C 63.5,69.5 63.5,70.5 63.5,71.5C 59.9408,71.7155 56.4408,71.3822 53,70.5C 51.9701,70.8361 51.4701,71.5028 51.5,72.5C 54.5645,76.9713 58.3978,77.9713 63,75.5C 63.7112,77.3668 63.2112,78.8668 61.5,80C 62.3805,80.7083 63.0472,81.5416 63.5,82.5C 63.223,86.3319 62.8896,90.1652 62.5,94C 62.5465,96.2953 63.2132,98.1286 64.5,99.5C 65.6905,102.503 65.0239,105.169 62.5,107.5C 61.914,107.291 61.414,106.957 61,106.5C 60.7725,102.083 60.2725,97.7496 59.5,93.5C 59.6495,92.448 59.4828,91.448 59,90.5C 57.872,92.3453 57.372,94.3453 57.5,96.5C 57.665,99.8499 57.4983,103.183 57,106.5C 56.586,106.957 56.086,107.291 55.5,107.5C 50.7681,99.2029 46.4348,90.7029 42.5,82C 37.9578,83.2692 33.6245,85.1025 29.5,87.5C 28.5139,91.97 28.1805,96.6367 28.5,101.5C 27.791,102.404 26.791,102.737 25.5,102.5C 25.334,97.1563 25.5006,91.8229 26,86.5C 31.4731,82.8465 37.3064,79.8465 43.5,77.5C 44.8149,75.6841 46.3149,74.0175 48,72.5C 48.6667,70.8333 48.6667,69.1667 48,67.5C 45.9565,65.792 44.2899,63.792 43,61.5C 30.5548,59.3074 26.2215,51.974 30,39.5C 34.0798,35.9591 37.0798,31.6258 39,26.5C 52.2743,13.2235 65.6076,13.2235 79,26.5C 81.1939,29.5544 82.8605,32.8878 84,36.5C 85.5122,37.2567 86.8455,38.2567 88,39.5C 88.8962,44.9491 88.5628,50.2825 87,55.5C 84.3067,55.9526 82.4734,57.4526 81.5,60C 77.5495,59.5573 74.8829,61.0573 73.5,64.5 Z"/></g>
<g><path style="opacity:1" fill="#142d44" d="M 49.5,11.5 C 79.5676,9.42946 98.7343,22.7628 107,51.5C 107.803,59.6789 106.97,67.6789 104.5,75.5C 103.5,75.5 102.5,75.5 101.5,75.5C 108.31,45.6093 97.3101,25.7759 68.5,16C 41.8858,12.9565 24.3858,24.1232 16,49.5C 14.1249,60.8229 15.9582,71.4895 21.5,81.5C 20.7112,83.4879 19.5445,83.8213 18,82.5C 6.68919,60.2662 9.85585,40.4328 27.5,23C 34.2121,17.8121 41.5454,13.9788 49.5,11.5 Z"/></g>
<g><path style="opacity:1" fill="#172f46" d="M 56.5,27.5 C 64.9568,28.437 66.6235,32.2703 61.5,39C 55.1714,39.6675 52.6714,36.8342 54,30.5C 55.045,29.6266 55.8783,28.6266 56.5,27.5 Z"/></g>
<g><path style="opacity:1" fill="#699abd" d="M 71.5,23.5 C 74.3948,25.2023 76.2281,27.5356 77,30.5C 74.9373,28.2659 72.7706,26.2659 70.5,24.5C 71.1667,24.5 71.5,24.1667 71.5,23.5 Z"/></g>
<g><path style="opacity:1" fill="#d5dde0" d="M 71.5,23.5 C 71.5,24.1667 71.1667,24.5 70.5,24.5C 61.8999,21.3546 53.5666,21.8546 45.5,26C 44,27.5 42.5,29 41,30.5C 43.253,25.0706 47.4197,21.5706 53.5,20C 60.0028,18.7475 66.0028,19.9142 71.5,23.5 Z"/></g>
<g><path style="opacity:1" fill="#c8d0d3" d="M 57.5,30.5 C 61.35,30.7007 62.35,32.5341 60.5,36C 56.5369,36.1177 55.5369,34.2843 57.5,30.5 Z"/></g>
<g><path style="opacity:1" fill="#132d42" d="M 57.5,32.5 C 58.675,32.281 59.675,32.6143 60.5,33.5C 58.9483,34.7979 57.9483,34.4646 57.5,32.5 Z"/></g>
<g><path style="opacity:1" fill="#1c3449" d="M 92.5,39.5 C 94.3464,39.2222 95.6798,39.8888 96.5,41.5C 95.6798,43.1112 94.3464,43.7778 92.5,43.5C 92.5,42.1667 92.5,40.8333 92.5,39.5 Z"/></g>
<g><path style="opacity:1" fill="#122d43" d="M 22.5,39.5 C 23.8333,39.5 25.1667,39.5 26.5,39.5C 26.7778,41.3464 26.1112,42.6798 24.5,43.5C 22.8888,42.6798 22.2222,41.3464 22.5,39.5 Z"/></g>
<g><path style="opacity:1" fill="#172f45" d="M 66.5,39.5 C 73.5701,40.4067 75.2368,43.9067 71.5,50C 64.8374,51.6664 62.0041,49.1664 63,42.5C 64.1451,41.3636 65.3117,40.3636 66.5,39.5 Z"/></g>
<g><path style="opacity:1" fill="#142d43" d="M 47.5,39.5 C 53.3296,39.1605 55.8296,41.8272 55,47.5C 51.952,51.0095 48.6187,51.3428 45,48.5C 43.9271,44.9003 44.7605,41.9003 47.5,39.5 Z"/></g>
<g><path style="opacity:1" fill="#e0eef5" d="M 37.5,38.5 C 37.8195,43.3633 37.4861,48.03 36.5,52.5C 35.5041,52.4142 34.6708,52.7476 34,53.5C 33.5008,48.8452 33.3342,44.1785 33.5,39.5C 34.9587,39.5674 36.2921,39.2341 37.5,38.5 Z"/></g>
<g><path style="opacity:1" fill="#b9c2c7" d="M 48.5,42.5 C 53.1608,43.3244 53.6608,45.3244 50,48.5C 47.3266,47.1417 46.8266,45.1417 48.5,42.5 Z"/></g>
<g><path style="opacity:1" fill="#072239" d="M 48.5,44.5 C 50.337,44.6395 50.6704,45.3061 49.5,46.5C 48.7025,46.0431 48.3691,45.3764 48.5,44.5 Z"/></g>
<g><path style="opacity:1" fill="#bfc8cc" d="M 66.5,42.5 C 70.35,42.7007 71.35,44.5341 69.5,48C 65.5369,48.1177 64.5369,46.2843 66.5,42.5 Z"/></g>
<g><path style="opacity:1" fill="#20384d" d="M 66.5,44.5 C 67.675,44.281 68.675,44.6143 69.5,45.5C 67.9483,46.7979 66.9483,46.4646 66.5,44.5 Z"/></g>
<g><path style="opacity:1" fill="#163045" d="M 93.5,46.5 C 94.5,46.5 95.5,46.5 96.5,46.5C 96.5,47.5 96.5,48.5 96.5,49.5C 95.5,49.5 94.5,49.5 93.5,49.5C 93.5,48.5 93.5,47.5 93.5,46.5 Z"/></g>
<g><path style="opacity:1" fill="#152f44" d="M 22.5,46.5 C 26.31,47.7542 26.31,48.7542 22.5,49.5C 22.5,48.5 22.5,47.5 22.5,46.5 Z"/></g>
<g><path style="opacity:1" fill="#c9dfeb" d="M 84.5,40.5 C 84.5,44.1667 84.5,47.8333 84.5,51.5C 82.2188,51.9227 80.5521,51.256 79.5,49.5C 79.3343,45.1539 79.501,40.8206 80,36.5C 80.9066,38.6091 82.4066,39.9424 84.5,40.5 Z"/></g>
<g><path style="opacity:1" fill="#08263d" d="M 81.5,40.5 C 82.6491,40.7911 83.3158,41.6244 83.5,43C 83.1667,43.8333 82.8333,44.6667 82.5,45.5C 81.5481,43.9547 81.2148,42.288 81.5,40.5 Z"/></g>
<g><path style="opacity:1" fill="#243b50" d="M 21.5,51.5 C 22.8333,51.5 24.1667,51.5 25.5,51.5C 25.5,52.5 25.5,53.5 25.5,54.5C 23.0274,54.9118 21.6941,53.9118 21.5,51.5 Z"/></g>
<g><path style="opacity:1" fill="#74a3c1" d="M 84.5,40.5 C 85.8111,44.6829 85.8111,49.0162 84.5,53.5C 83.8333,53.1667 83.1667,52.8333 82.5,52.5C 81.6433,53.7357 80.9766,55.069 80.5,56.5C 79.675,57.3857 78.675,57.719 77.5,57.5C 77.5651,54.5718 78.2318,51.9052 79.5,49.5C 80.5521,51.256 82.2188,51.9227 84.5,51.5C 84.5,47.8333 84.5,44.1667 84.5,40.5 Z"/></g>
<g><path style="opacity:1" fill="#102d43" d="M 93.5,51.5 C 94.5,51.5 95.5,51.5 96.5,51.5C 96.5,52.5 96.5,53.5 96.5,54.5C 95.5,54.5 94.5,54.5 93.5,54.5C 93.5,53.5 93.5,52.5 93.5,51.5 Z"/></g>
<g><path style="opacity:1" fill="#6fadd2" d="M 36.5,52.5 C 37.4861,48.03 37.8195,43.3633 37.5,38.5C 38.3514,43.5115 39.3514,49.8449 40.5,57.5C 37.5299,57.2542 36.1966,55.5876 36.5,52.5 Z"/></g>
<g><path style="opacity:1" fill="#122c43" d="M 21.5,56.5 C 23.6648,56.1159 25.3315,56.7826 26.5,58.5C 25.3315,60.2174 23.6648,60.8841 21.5,60.5C 21.5,59.1667 21.5,57.8333 21.5,56.5 Z"/></g>
<g><path style="opacity:1" fill="#0c273e" d="M 92.5,56.5 C 93.8734,56.3433 95.2068,56.51 96.5,57C 97.6745,59.8288 96.6745,60.8288 93.5,60C 92.6634,58.9887 92.33,57.8221 92.5,56.5 Z"/></g>
<g><path style="opacity:1" fill="#02213a" d="M 55.5,59.5 C 57.924,59.1924 60.2573,59.5258 62.5,60.5C 61.3333,60.8333 60.1667,61.1667 59,61.5C 57.3189,61.3917 56.1522,60.7251 55.5,59.5 Z"/></g>
<g><path style="opacity:1" fill="#eaeef0" d="M 73.5,64.5 C 73.8333,64.5 74.1667,64.5 74.5,64.5C 74.1961,65.1499 73.8627,65.8165 73.5,66.5C 79.4632,67.4959 85.4632,67.8293 91.5,67.5C 91.5,71.5 91.5,75.5 91.5,79.5C 92.5,79.5 93.5,79.5 94.5,79.5C 94.5,80.1667 94.5,80.8333 94.5,81.5C 92.1727,81.7529 90.1727,81.0863 88.5,79.5C 88.3631,84.9608 85.6964,88.2941 80.5,89.5C 75.4965,88.2116 72.8299,84.8783 72.5,79.5C 71.3483,82.1062 71.1816,84.7728 72,87.5C 74.0673,90.07 76.5673,92.07 79.5,93.5C 78.5,94.1667 77.5,94.8333 76.5,95.5C 79.1667,96.8333 81.8333,96.8333 84.5,95.5C 83.1468,94.4763 82.4802,93.143 82.5,91.5C 85.0991,91.4506 87.2658,90.4506 89,88.5C 89.6667,89.1667 90.3333,89.8333 91,90.5C 91.8151,95.3522 91.6484,100.019 90.5,104.5C 90.44,103.957 90.1067,103.624 89.5,103.5C 88.3777,104.63 87.0443,105.297 85.5,105.5C 85.0472,104.542 84.3805,103.708 83.5,103C 85.4727,102.505 87.4727,102.338 89.5,102.5C 89.5,101.5 89.5,100.5 89.5,99.5C 82.8333,99.5 76.1667,99.5 69.5,99.5C 69.3335,88.8281 69.5002,78.1615 70,67.5C 71.0391,66.2899 72.2058,65.2899 73.5,64.5 Z"/></g>
<g><path style="opacity:1" fill="#21384d" d="M 28.5,63.5 C 29.8333,63.5 31.1667,63.5 32.5,63.5C 32.5,64.5 32.5,65.5 32.5,66.5C 28.5967,67.7599 24.93,69.4265 21.5,71.5C 21.3505,70.448 21.5172,69.448 22,68.5C 24.3256,66.9343 26.4922,65.2676 28.5,63.5 Z"/></g>
<g><path style="opacity:1" fill="#1d3549" d="M 35.5,67.5 C 36.8333,67.5 38.1667,67.5 39.5,67.5C 39.5,68.5 39.5,69.5 39.5,70.5C 38.1266,70.3433 36.7932,70.51 35.5,71C 33.6499,73.0176 31.6499,74.8509 29.5,76.5C 28.432,74.8125 28.5986,73.1459 30,71.5C 32.0153,70.3034 33.8487,68.9701 35.5,67.5 Z"/></g>
<g><path style="opacity:1" fill="#142e44" d="M 74.5,64.5 C 80.9522,64.0845 87.2855,64.5845 93.5,66C 94.4667,70.4014 94.8,74.9014 94.5,79.5C 93.5,79.5 92.5,79.5 91.5,79.5C 91.5,75.5 91.5,71.5 91.5,67.5C 85.4632,67.8293 79.4632,67.4959 73.5,66.5C 73.8627,65.8165 74.1961,65.1499 74.5,64.5 Z"/></g>
<g><path style="opacity:1" fill="#0f2b41" d="M 77.5,70.5 C 80.3646,70.0548 82.8646,70.7215 85,72.5C 85.6667,76.8333 85.6667,81.1667 85,85.5C 81.5281,88.418 78.5281,88.0846 76,84.5C 74.9656,79.5431 75.4656,74.8764 77.5,70.5 Z"/></g>
<g><path style="opacity:1" fill="#7bb7de" d="M 63.5,71.5 C 62.3064,72.7773 60.6397,73.4439 58.5,73.5C 56.1166,73.3626 53.7832,73.0293 51.5,72.5C 51.4701,71.5028 51.9701,70.8361 53,70.5C 56.4408,71.3822 59.9408,71.7155 63.5,71.5 Z"/></g>
<g><path style="opacity:1" fill="#d6dcde" d="M 79.5,72.5 C 82.83,73.1507 83.1633,74.484 80.5,76.5C 81.0253,77.1924 81.6919,77.6924 82.5,78C 81.2068,78.49 79.8734,78.6567 78.5,78.5C 78.3253,76.3792 78.6586,74.3792 79.5,72.5 Z"/></g>
<g><path style="opacity:1" fill="#1b3449" d="M 37.5,74.5 C 41.31,75.7542 41.31,76.7542 37.5,77.5C 37.5,76.5 37.5,75.5 37.5,74.5 Z"/></g>
<g><path style="opacity:1" fill="#edf0f1" d="M 47.5,76.5 C 58.2587,77.807 58.9253,80.807 49.5,85.5C 47.9373,84.0552 46.604,82.3885 45.5,80.5C 46.6302,79.3777 47.2969,78.0443 47.5,76.5 Z"/></g>
<g><path style="opacity:1" fill="#122d43" d="M 94.5,81.5 C 96.8356,83.0038 98.669,85.0038 100,87.5C 100.5,94.1583 100.666,100.825 100.5,107.5C 99.5,107.5 98.5,107.5 97.5,107.5C 97.6662,101.158 97.4995,94.8246 97,88.5C 96.044,87.4214 95.2106,86.2547 94.5,85C 93.365,84.2506 92.365,84.4173 91.5,85.5C 94.4696,91.4361 95.3029,97.7694 94,104.5C 92.3601,108.278 91.1934,108.278 90.5,104.5C 91.6484,100.019 91.8151,95.3522 91,90.5C 90.3333,89.8333 89.6667,89.1667 89,88.5C 87.2658,90.4506 85.0991,91.4506 82.5,91.5C 82.4802,93.143 83.1468,94.4763 84.5,95.5C 81.8333,96.8333 79.1667,96.8333 76.5,95.5C 77.5,94.8333 78.5,94.1667 79.5,93.5C 76.5673,92.07 74.0673,90.07 72,87.5C 71.1816,84.7728 71.3483,82.1062 72.5,79.5C 72.8299,84.8783 75.4965,88.2116 80.5,89.5C 85.6964,88.2941 88.3631,84.9608 88.5,79.5C 90.1727,81.0863 92.1727,81.7529 94.5,81.5 Z"/></g>
<g><path style="opacity:1" fill="#d1d8db" d="M 78.5,80.5 C 79.8333,80.5 81.1667,80.5 82.5,80.5C 82.8841,82.6648 82.2174,84.3315 80.5,85.5C 78.7826,84.3315 78.1159,82.6648 78.5,80.5 Z"/></g>
<g><path style="opacity:1" fill="#cad2d5" d="M 57.5,82.5 C 61.1612,82.3501 62.1612,83.8501 60.5,87C 56.7071,87.4866 55.7071,85.9866 57.5,82.5 Z"/></g>
<g><path style="opacity:1" fill="#7fadca" d="M 54.5,94.5 C 54.5,92.8333 54.5,91.1667 54.5,89.5C 52.901,89.2322 51.5676,89.5655 50.5,90.5C 49.9569,90.44 49.6236,90.1067 49.5,89.5C 51.272,86.7229 53.1053,86.3896 55,88.5C 55.7891,90.7116 55.6225,92.7116 54.5,94.5 Z"/></g>
<g><path style="opacity:1" fill="#f2f5f7" d="M 54.5,94.5 C 54.6567,95.8734 54.49,97.2068 54,98.5C 52.5462,95.9289 51.3795,93.2622 50.5,90.5C 51.5676,89.5655 52.901,89.2322 54.5,89.5C 54.5,91.1667 54.5,92.8333 54.5,94.5 Z"/></g>
<g><path style="opacity:1" fill="#8ba3b1" d="M 63.5,82.5 C 63.6419,88.0637 63.9752,93.7304 64.5,99.5C 63.2132,98.1286 62.5465,96.2953 62.5,94C 62.8896,90.1652 63.223,86.3319 63.5,82.5 Z"/></g>
<g><path style="opacity:1" fill="#07263c" d="M 33.5,89.5 C 34.6935,89.9704 35.3601,90.9704 35.5,92.5C 35.1667,93.5 34.8333,94.5 34.5,95.5C 33.5344,93.604 33.2011,91.604 33.5,89.5 Z"/></g>
<g><path style="opacity:1" fill="#70a3c2" d="M 29.5,87.5 C 30.9816,92.0145 31.6483,96.6812 31.5,101.5C 30.5,101.5 29.5,101.5 28.5,101.5C 28.1805,96.6367 28.5139,91.97 29.5,87.5 Z"/></g>
<g><path style="opacity:1" fill="#85a0b1" d="M 59.5,93.5 C 58.8333,94.5 58.1667,95.5 57.5,96.5C 57.372,94.3453 57.872,92.3453 59,90.5C 59.4828,91.448 59.6495,92.448 59.5,93.5 Z"/></g>
<g><path style="opacity:1" fill="#152e41" d="M 33.5,97.5 C 35.4646,97.9483 35.7979,98.9483 34.5,100.5C 33.6143,99.675 33.281,98.675 33.5,97.5 Z"/></g>
</svg>
